<svg xmlns="http://www.w3.org/2000/svg" viewBox="600 500 800 1050">
<defs>
	<linearGradient gradientUnits="userSpaceOnUse" id="Gradient1" x1="1203.33" x2="883.374" y1="826.993" y2="733.199">
		<stop class="stop0" offset="0" stop-color="rgb(153,151,154)" stop-opacity="1"></stop>
		<stop class="stop1" offset="1" stop-color="rgb(206,204,204)" stop-opacity="1"></stop>
	</linearGradient>
	<linearGradient gradientUnits="userSpaceOnUse" id="Gradient2" x1="994.042" x2="672.137" y1="924.67" y2="1231.38">
		<stop class="stop0" offset="0" stop-color="rgb(173,171,172)" stop-opacity="1"></stop>
		<stop class="stop1" offset="1" stop-color="rgb(216,215,216)" stop-opacity="1"></stop>
	</linearGradient>
	<linearGradient gradientUnits="userSpaceOnUse" id="Gradient3" x1="1116.57" x2="834.063" y1="1050.52" y2="1307.19">
		<stop class="stop0" offset="0" stop-color="rgb(148,147,149)" stop-opacity="1"></stop>
		<stop class="stop1" offset="1" stop-color="rgb(202,200,200)" stop-opacity="1"></stop>
	</linearGradient>
	<linearGradient gradientUnits="userSpaceOnUse" id="Gradient4" x1="1072.7" x2="1065.09" y1="1114.53" y2="557.52">
		<stop class="stop0" offset="0" stop-color="rgb(182,180,181)" stop-opacity="1"></stop>
		<stop class="stop1" offset="1" stop-color="rgb(232,232,232)" stop-opacity="1"></stop>
	</linearGradient>
</defs>
<rect x="600" y="500" width="800" height="1050" fill="#1C1D1F"/>
<path d="M 800.796 668.61 C 874.337 586.418 1001.21 539.695 1109.41 561.399 C 1172.33 574.019 1231.34 609.043 1267.65 662.438 L 1269.57 661.571 C 1256.58 640.624 1248.32 630.507 1231.22 613.171 C 1239.9 619.524 1252.63 626.654 1260.23 633.006 C 1320.52 673.676 1365.75 747.768 1379.19 818.683 C 1394.16 897.715 1381.08 978.365 1334.73 1045.14 C 1292.2 1106.42 1233.94 1148.2 1159.51 1162.07 C 1089.22 1175.17 1018.3 1156.83 959.434 1117.27 C 949.194 1110.39 937.753 1100.16 928.315 1091.96 L 928.871 1089.66 C 933.015 1090.89 949.61 1095.46 952.642 1096.79 C 1004.56 1106.26 1062.12 1092.88 1105.73 1063.43 C 1217.86 987.703 1238.26 833.679 1164.25 723.911 C 1127.4 668.13 1069.56 629.629 1003.88 617.169 C 943.49 605.614 884.676 618.173 831.641 648.243 C 820.594 654.507 811.247 661.561 800.796 668.61 z" fill="url(#Gradient4)" transform="translate(0,0)"></path>
<path d="M 1260.23 633.006 C 1320.52 673.676 1365.75 747.768 1379.19 818.683 C 1394.16 897.715 1381.08 978.365 1334.73 1045.14 C 1292.2 1106.42 1233.94 1148.2 1159.51 1162.07 C 1089.22 1175.17 1018.3 1156.83 959.434 1117.27 C 949.194 1110.39 937.753 1100.16 928.315 1091.96 L 928.871 1089.66 C 933.015 1090.89 949.61 1095.46 952.642 1096.79 C 956.151 1102.5 969.226 1105.37 975.81 1107.05 C 1126.94 1145.61 1280.05 1057.45 1320.29 906.17 C 1333.5 856.303 1334.2 803.946 1322.33 753.744 C 1320.28 745.244 1315.71 728.863 1311.33 721.369 C 1302.87 699.508 1290.61 676.479 1276.99 657.504 C 1271.68 650.09 1263.87 643.467 1258.77 635.21 L 1260.23 633.006 z" fill="rgb(231,231,231)" transform="translate(0,0)"></path>
<path d="M 1269.57 661.571 C 1256.58 640.624 1248.32 630.507 1231.22 613.171 C 1239.9 619.524 1252.63 626.654 1260.23 633.006 L 1258.77 635.21 C 1263.87 643.467 1271.68 650.09 1276.99 657.504 C 1290.61 676.479 1302.87 699.508 1311.33 721.369 C 1308.57 719.566 1302.16 703.139 1299.95 698.714 C 1288.85 676.522 1278.77 661.084 1261.83 642.877 L 1260.81 643.734 C 1264.33 650.656 1276.69 665.806 1276.58 672.382 C 1273.9 668.735 1272.11 664.697 1269.57 661.571 z" fill="rgb(160,158,159)" transform="translate(0,0)"></path>
<path d="M 1269.57 661.571 C 1272.11 664.697 1273.9 668.735 1276.58 672.382 C 1276.79 672.428 1277.01 672.473 1277.23 672.518 C 1278.69 674.114 1284.31 686.461 1282.64 689.128 C 1284.01 690.322 1268.54 663.841 1267.65 662.438 L 1269.57 661.571 z" fill="rgb(74,72,74)" transform="translate(0,0)"></path>
<path d="M 897.146 867.585 C 906.096 865.868 914.018 855.762 922.384 852.91 C 922.145 855.85 921.489 855.796 923.196 857.657 C 925.753 860.446 938.388 868.154 941.505 869.498 C 938.053 873.766 932.941 879.277 931.104 884.233 C 933.961 881.816 937.749 876.764 940.227 873.691 C 944.47 873.423 953.936 878.167 956.288 880.832 C 961.566 886.814 964.774 884.848 968.507 887.57 C 968.623 887.837 967.974 892.288 967.886 893.227 L 967.682 895.26 C 965.17 903.719 962.309 912.048 959.635 920.48 C 943.753 970.557 935.183 1022.95 929.957 1075.13 C 929.492 1079.78 928.851 1085.04 928.871 1089.66 L 928.315 1091.96 C 918.201 1193.86 935.645 1397.54 1002.57 1479.41 C 1004.8 1482.15 1007.07 1484.87 1009.37 1487.56 L 1006.33 1489.27 C 1007.8 1491.04 1008.51 1492.19 1009.73 1494.13 C 973.751 1495.21 924.632 1486.17 891.948 1471.87 C 820.488 1440.62 777.459 1391.27 749.392 1319.98 C 727.668 1252.85 724.674 1181.06 740.733 1112.35 C 757.041 1040.2 792.882 972.584 841.931 917.528 C 855.839 901.917 879.545 878.675 897.146 867.585 z" fill="rgb(231,231,231)" transform="translate(0,0)"></path>
<path d="M 940.227 873.691 C 944.47 873.423 953.936 878.167 956.288 880.832 C 961.566 886.814 964.774 884.848 968.507 887.57 C 968.623 887.837 967.974 892.288 967.886 893.227 L 967.682 895.26 C 965.17 903.719 962.309 912.048 959.635 920.48 C 943.753 970.557 935.183 1022.95 929.957 1075.13 C 929.492 1079.78 928.851 1085.04 928.871 1089.66 L 928.315 1091.96 C 918.201 1193.86 935.645 1397.54 1002.57 1479.41 C 1004.8 1482.15 1007.07 1484.87 1009.37 1487.56 L 1006.33 1489.27 C 1002.91 1488.76 996.827 1483.21 993.946 1480.87 C 968.437 1459.88 946.641 1434.75 929.471 1406.53 C 876.051 1320.37 850.486 1205.79 855.425 1104.73 C 856.808 1076.42 862.935 1046.51 869.372 1019 C 871.71 1013.07 873.521 1005.31 875.472 999.103 C 884.643 969.927 895.428 940.777 911.159 914.44 C 917.367 904.046 924.57 894.423 931.104 884.233 C 933.961 881.816 937.749 876.764 940.227 873.691 z" fill="url(#Gradient3)" transform="translate(0,0)"></path>
<path d="M 897.146 867.585 C 906.096 865.868 914.018 855.762 922.384 852.91 C 922.145 855.85 921.489 855.796 923.196 857.657 C 925.753 860.446 938.388 868.154 941.505 869.498 C 938.053 873.766 932.941 879.277 931.104 884.233 C 924.57 894.423 917.367 904.046 911.159 914.44 C 895.428 940.777 884.643 969.927 875.472 999.103 C 873.521 1005.31 871.71 1013.07 869.372 1019 C 859.159 1029.54 845.674 1048.79 837.246 1061.04 C 796.833 1119.74 768.758 1176.27 756.287 1246.81 C 753.783 1261.62 752.131 1276.56 751.34 1291.55 C 750.92 1298.57 750.538 1313.64 749.392 1319.98 C 727.668 1252.85 724.674 1181.06 740.733 1112.35 C 757.041 1040.2 792.882 972.584 841.931 917.528 C 855.839 901.917 879.545 878.675 897.146 867.585 z" fill="url(#Gradient2)" transform="translate(0,0)"></path>
<path d="M 713.221 1210.45 C 666.958 1113.91 650.536 993.967 674.661 889.096 C 694.756 805.37 743.957 726.186 818.717 681.513 C 946.282 605.286 1095.17 659.132 1168.17 781.9 C 1173.88 791.067 1180.48 803.609 1184.37 813.783 C 1190.5 824.431 1196.29 846.86 1199.29 859.293 C 1182.64 838.118 1170.18 824.641 1145.88 811.156 C 1098.13 784.665 1045.21 778.739 991.987 788.935 C 975.172 792.156 959.736 798.201 943.539 802.673 C 923.486 811.186 907.485 818.106 888.66 829.054 C 818.523 869.886 763.842 932.748 733.12 1007.87 C 727.33 1022.16 723.396 1034.61 718.867 1049.34 C 705.803 1108.4 704.753 1143.23 714.152 1203.91 C 714.42 1205.18 716.006 1212.93 715.051 1213.48 C 714.193 1213.13 713.582 1211.28 713.221 1210.45 z" fill="rgb(231,231,231)" transform="translate(0,0)"></path>
<path d="M 902.715 751.521 C 910.789 746.872 922.019 742.636 930.84 739.308 C 974.995 722.648 1021.65 720.386 1067.25 732.507 C 1106.53 742.948 1123.79 756.016 1154.12 780.155 C 1159.73 787.041 1167.29 792.52 1172.56 799.857 C 1177.41 806.597 1177.91 808.949 1183.48 814.25 C 1183.78 814.094 1184.08 813.938 1184.37 813.783 C 1190.5 824.431 1196.29 846.86 1199.29 859.293 C 1182.64 838.118 1170.18 824.641 1145.88 811.156 C 1098.13 784.665 1045.21 778.739 991.987 788.935 C 975.172 792.156 959.736 798.201 943.539 802.673 C 926.783 802.937 912.232 782.715 900.582 775.503 C 893.325 771.011 885.503 780.775 872.282 775.799 L 871.725 774.191 C 875.572 766.3 899.344 757.658 902.715 751.521 z" fill="url(#Gradient1)" transform="translate(0,0)"></path>
<path d="M 902.715 751.521 C 899.344 757.658 875.572 766.3 871.725 774.191 L 872.282 775.799 C 885.503 780.775 893.325 771.011 900.582 775.503 C 912.232 782.715 926.783 802.937 943.539 802.673 C 923.486 811.186 907.485 818.106 888.66 829.054 C 818.523 869.886 763.842 932.748 733.12 1007.87 C 727.33 1022.16 723.396 1034.61 718.867 1049.34 C 717.304 1044.81 722.196 1030.68 723.883 1025.97 C 742.73 973.346 772.22 925.179 811.811 885.541 C 821.444 876.535 831.378 867.729 841.315 859.074 C 844.768 856.067 856.53 848.78 857.252 845.791 C 851.116 841.189 833.437 848.042 826.293 848.849 L 825.067 848.976 L 820.23 846.644 C 814.982 838.855 811.707 836.89 814.785 827.563 C 815.373 825.782 815.405 823.267 814.225 821.679 C 789.953 845.324 773.47 872.014 757.209 901.09 L 756.07 901.18 C 757.196 897.393 764.464 885.315 766.931 881.26 C 797.005 831.831 849.139 775.02 902.715 751.521 z" fill="rgb(198,196,197)" transform="translate(0,0)"></path>
<path d="M 1154.12 780.155 C 1162.57 783.904 1168.53 792.748 1175.55 799.143 L 1173.55 795.004 C 1170.85 789.541 1167.49 788.011 1168.17 781.9 C 1173.88 791.067 1180.48 803.609 1184.37 813.783 C 1184.08 813.938 1183.78 814.094 1183.48 814.25 C 1177.91 808.949 1177.41 806.597 1172.56 799.857 C 1167.29 792.52 1159.73 787.041 1154.12 780.155 z" fill="rgb(198,196,197)" transform="translate(0,0)"></path>
<path d="M 714.152 1203.91 C 714.42 1205.18 716.006 1212.93 715.051 1213.48 C 714.193 1213.13 713.582 1211.28 713.221 1210.45 C 713.473 1208.23 713.816 1206.11 714.152 1203.91 z" fill="rgb(198,196,197)" transform="translate(0,0)"></path>
<path d="M 897.146 867.585 C 928.244 840.321 976.743 822.955 1015.89 812.603 C 1013.53 815.196 1010.64 817.821 1008.06 820.27 C 982.732 853.457 983.899 859.342 967.682 895.26 L 967.886 893.227 C 967.974 892.288 968.623 887.837 968.507 887.57 C 964.774 884.848 961.566 886.814 956.288 880.832 C 953.936 878.167 944.47 873.423 940.227 873.691 C 937.749 876.764 933.961 881.816 931.104 884.233 C 932.941 879.277 938.053 873.766 941.505 869.498 C 938.388 868.154 925.753 860.446 923.196 857.657 C 921.489 855.796 922.145 855.85 922.384 852.91 C 914.018 855.762 906.096 865.868 897.146 867.585 z" fill="rgb(160,158,159)" transform="translate(0,0)"></path>
<path d="M 940.227 873.691 C 957.319 855.041 980.333 827.179 1006.11 820.782 L 1008.06 820.27 C 982.732 853.457 983.899 859.342 967.682 895.26 L 967.886 893.227 C 967.974 892.288 968.623 887.837 968.507 887.57 C 964.774 884.848 961.566 886.814 956.288 880.832 C 953.936 878.167 944.47 873.423 940.227 873.691 z" fill="rgb(140,139,140)" transform="translate(0,0)"></path>
<path d="M 1006.33 1489.27 L 1009.37 1487.56 C 1014.58 1492.16 1019.94 1494.2 1009.73 1494.13 C 1008.51 1492.19 1007.8 1491.04 1006.33 1489.27 z" fill="rgb(198,196,197)" transform="translate(0,0)"></path>
<metadata><recraft-signature>{"signed_by": "recraft", "signature_b64": "Q/EUN/vfSYWZEYikm+ht9PGTw4fZv+BTBuvWPA1dXycMyaTavG3Rhd427m9yNWxTUpHAMO/LAtbWm7r3G7OqBw==", "signing_algo": "Ed25519", "generation_timestamp": 1773919162, "identifier": "feac07be-da22-4b25-a95e-4f216807e880"}</recraft-signature></metadata></svg>